<?xml version="1.0" encoding="UTF-8"?>
<svg width="1440px" height="600px" viewBox="0 0 1440 600" version="1.1" xmlns="http://www.w3.org/2000/svg" xmlns:xlink="http://www.w3.org/1999/xlink">
    <!-- Generator: Sketch 52.6 (67491) - http://www.bohemiancoding.com/sketch -->
    <title>hero_overlay</title>
    <desc>Created with Sketch.</desc>
    <g id="Page-1" stroke="none" stroke-width="1" fill="none" fill-rule="evenodd">
        <g id="Homepage-Dark" transform="translate(0.000000, -198.000000)">
            <g id="hero">
                <g id="hero_overlay" transform="translate(0.000000, 197.000000)">
                    <path d="M645,-44 C510.373806,-44 560.555109,6.9387414 459.367314,-16.4998766 C430.116877,-23.2752968 395.581964,-21.524662 368.697627,-5.59755747 C293.549446,38.9225261 337.897276,208.230798 268.157346,245.042421 C231.728641,264.271 208.561861,225.512845 181.59622,245.042421 C138.647525,276.147552 178.65366,368.211185 154.297872,388.140735 C131.197767,407.0428 103.208236,421.015781 81.1841138,453.660194 C63.8225319,479.393735 44,519.609648 44,645 L44,-44 L645,-44 Z" id="Path" fill="#FFFFFF" opacity="0.069359189" transform="translate(344.500000, 300.500000) rotate(-90.000000) translate(-344.500000, -300.500000) "></path>
                    <path d="M0,184.894884 C6.37454656,193.562973 14.3810158,201.898824 24.3421108,209.861799 C179.119958,333.592382 350.524275,131.242693 516.04954,185.393795 C681.574804,239.544897 593.086711,365.309299 773.710149,383.643776 C950.980103,401.637852 1193.92369,87.2459122 1440,12.7761312 L1440,601 L0,601 L0,184.894884 Z" id="full-width" fill="#FFFFFF" opacity="0.037016369"></path>
                    <path d="M0.0244610513,202 C-0.851183728,243.250995 21.7825999,270.779613 67.9258121,284.585856 C137.14063,305.295221 182.607887,272.478887 276.898465,290.578018 C371.189042,308.677148 466.064988,401.666615 505.022817,473.74776 C543.980646,545.828905 552.160404,580.23419 598.88207,580.23419 C645.603737,580.23419 668.078815,530.281992 733.647814,530.281992 C799.216813,530.281992 826.918883,555.180811 874.185393,555.180811 C1030.10488,555.180811 1155.52504,453.303752 1308.0413,521.122084 C1348.59294,539.153892 1392.57917,565.779864 1440,601 L0.0244610513,601 L0.0244610513,202 Z" id="white" fill="#F8FAFC"></path>
                </g>
            </g>
        </g>
    </g>
</svg>