<?xml version="1.0" encoding="utf-8"?>
<!-- Generator: Adobe Illustrator 22.1.0, SVG Export Plug-In . SVG Version: 6.00 Build 0)  -->
<svg version="1.1" id="Layer_1" xmlns="http://www.w3.org/2000/svg" xmlns:xlink="http://www.w3.org/1999/xlink" x="0px" y="0px"
	 viewBox="0 0 455.3 86.6" style="enable-background:new 0 0 455.3 86.6;" xml:space="preserve">
<style type="text/css">
	.st0{fill:#fff;}
	.st1{fill:url(#SVGID_1_);}
	.st2{fill:url(#SVGID_2_);}
</style>
<path class="st0" d="M424.8,0.8v7h-50.1v21.8h44.5v7h-44.5v43.3h-7V36.5c-0.2,0-0.7,0-1.6-0.1c-0.9-0.1-2-0.3-3.2-0.6
	c-1.3-0.3-2.6-0.8-4-1.4c-1.4-0.6-2.6-1.4-3.7-2.5l5-4.8c0.8,0.6,1.8,1.2,3,1.6c1.2,0.4,2.7,0.7,4.4,0.8V0.8H424.8z"/>
<path class="st0" d="M56.9,72.8v7H0V0.7h7v72.1H56.9z"/>
<path class="st0" d="M91.3,0.7v79.1h-7V0.7H91.3z"/>
<path class="st0" d="M257,80.6c-4.4,0-8.5-0.8-12.3-2.5c-3.8-1.6-7.1-3.8-9.9-6.6c-2.8-2.8-5-6-6.6-9.7c-1.6-3.7-2.4-7.7-2.4-11.8
	V0.7h7V50c0,3.3,0.6,6.4,1.8,9.2s2.9,5.4,5,7.5c2.2,2.1,4.7,3.8,7.7,5c3,1.2,6.2,1.9,9.7,1.9c3.4,0,6.7-0.6,9.8-1.9
	c3.1-1.2,5.8-2.9,8-5c2.3-2.1,4.1-4.6,5.4-7.5c1.3-2.9,2-6,2-9.2V0.7h7V50c0,4.2-0.9,8.1-2.6,11.8c-1.7,3.7-4,7-7,9.7
	c-2.9,2.8-6.3,5-10.3,6.6C265.4,79.8,261.3,80.6,257,80.6z"/>
<path class="st0" d="M328.1,0.7v79.1h-7V0.7H328.1z"/>
<path class="st0" d="M455.3,0.7v79.1h-7V0.7H455.3z"/>
<path class="st0" d="M158.9,0c5.5,0,10.7,1.1,15.6,3.2c4.9,2.1,9.1,5,12.8,8.6c3.6,3.6,6.5,7.9,8.6,12.8c2.1,4.9,3.1,10.1,3.1,15.7
	s-1,10.7-3.1,15.7c-2.1,4.9-4.9,9.2-8.6,12.8c-3.6,3.6-7.9,6.5-12.8,8.6c-4.9,2.1-10.1,3.2-15.6,3.2c-5.6,0-10.9-1.1-15.8-3.2
	c-4.9-2.1-9.2-5-12.8-8.6c-3.6-3.6-6.5-7.9-8.6-12.8c-2.1-4.9-3.2-10.1-3.2-15.7s1.1-10.7,3.2-15.7c2.1-4.9,5-9.2,8.6-12.8
	c3.6-3.6,7.9-6.5,12.8-8.6C148.1,1.1,153.3,0,158.9,0z M192,40.3c0-4.6-0.9-9-2.6-13c-1.7-4-4.1-7.6-7.1-10.6c-3-3-6.5-5.4-10.6-7.1
	c-4-1.8-8.3-2.6-12.9-2.6c-4.6,0-9,0.9-13.1,2.6s-7.6,4.1-10.6,7.1c-3,3-5.4,6.5-7.1,10.6c-1.8,4-2.6,8.4-2.6,13c0,4.6,0.9,9,2.6,13
	c1.8,4,4.1,7.6,7.1,10.6c3,3,6.5,5.4,10.6,7.1c4.1,1.8,8.4,2.6,13.1,2.6c4.6,0,8.9-0.9,12.9-2.6c4-1.8,7.6-4.1,10.6-7.1
	c3-3,5.4-6.5,7.1-10.6C191.2,49.3,192,44.9,192,40.3z"/>
<linearGradient id="SVGID_1_" gradientUnits="userSpaceOnUse" x1="202.5163" y1="86.3735" x2="245.8467" y2="86.3735" gradientTransform="matrix(0.9879 0.1553 -0.1553 0.9879 -21.0247 -56.8174)">
	<stop  offset="0" style="stop-color:#5BC6CC"/>
	<stop  offset="0.2011" style="stop-color:#66C7C7"/>
	<stop  offset="0.5292" style="stop-color:#80CCB6"/>
	<stop  offset="0.9416" style="stop-color:#A3D49B"/>
	<stop  offset="1" style="stop-color:#A8D596"/>
</linearGradient>
<path class="st1" d="M177,41.2l23.6,33.3c0,0,1.5,2.5,2.8,3.5c0.7,0.5,0.9,1.1,2.9,1.9l-1.8,6.7c0,0-2.1-0.3-6-3.9
	c-1.2-1.1-4.1-4.9-4.1-4.9l-25.8-36.4L177,41.2z"/>
<linearGradient id="SVGID_2_" gradientUnits="userSpaceOnUse" x1="184.8315" y1="89.1529" x2="228.162" y2="89.1529" gradientTransform="matrix(0.9879 0.1553 -0.1553 0.9879 -21.0247 -56.8174)">
	<stop  offset="0" style="stop-color:#5BC6CC"/>
	<stop  offset="0.2011" style="stop-color:#66C7C7"/>
	<stop  offset="0.5292" style="stop-color:#80CCB6"/>
	<stop  offset="0.9416" style="stop-color:#A3D49B"/>
	<stop  offset="1" style="stop-color:#A8D596"/>
</linearGradient>
<path class="st2" d="M159.1,41.2l23.6,33.3c0,0,1.5,2.5,2.8,3.5c0.7,0.5,0.9,1.1,2.9,1.9l-1.8,6.7c0,0-2.1-0.3-6-3.9
	c-1.2-1.1-4.1-4.9-4.1-4.9l-25.8-36.4L159.1,41.2z"/>
</svg>
