<?xml version="1.0" encoding="utf-8"?>
<!-- Generator: Adobe Illustrator 19.1.0, SVG Export Plug-In . SVG Version: 6.00 Build 0)  -->
<svg version="1.1" id="Layer_1" xmlns="http://www.w3.org/2000/svg" xmlns:xlink="http://www.w3.org/1999/xlink" x="0px" y="0px"
	 viewBox="0 0 713 174" style="enable-background:new 0 0 713 174;" xml:space="preserve">
<style type="text/css">
	.st0{fill:url(#SVGID_1_);}
	.st1{fill:#494949;}
	.st2{fill:#585858;}
	.st3{fill:#0076A9;}
</style>
<g>
	<linearGradient id="SVGID_1_" gradientUnits="userSpaceOnUse" x1="86.1779" y1="5.9305" x2="86.1779" y2="169.7365">
		<stop  offset="0" style="stop-color:#008486"/>
		<stop  offset="1" style="stop-color:#0076A9"/>
	</linearGradient>
	<path class="st0" d="M137.2,5.9c-6.7,0-12.7,4.1-15.1,10.3l-42.2,94.6l-28-60.3c-3-7.6-10.4-12.6-18.6-12.6H10.3l56.8,131.9h25.5
		L162.1,5.9H137.2z"/>
	<g>
		<path class="st1" d="M130.9,125.3c0-17.7,12.6-32,30.1-32c18.5,0,29.3,14.4,29.3,32.8v2.4h-49.3c0.8,11.5,8.7,21.1,21.9,21.1
			c7.1,0,14-2.8,19-7.8l4.6,6.2c-6.2,6.1-14.4,9.5-24.3,9.5C144,157.4,130.9,144.4,130.9,125.3z M160.9,101.2c-13,0-19.5,11-20,20.2
			H181C180.9,112.4,174.8,101.2,160.9,101.2z"/>
		<path class="st1" d="M247.1,155.9v-40c0-10.9-5.6-14.2-13.8-14.2c-7.5,0-14.4,4.6-18.1,9.5v44.7h-9.5V94.8h9.5v8.9
			c4.3-5.2,12.6-10.4,21.9-10.4c12.6,0,19.4,6.5,19.4,19.7v42.9H247.1z"/>
		<path class="st1" d="M277.4,143.1v-40h-10.1v-8.3h10.1V78.1h9.6v16.7h12.4v8.3H287v37.9c0,4.6,2,7.8,6.1,7.8
			c2.8,0,5.2-1.3,6.5-2.7l2.8,7.2c-2.4,2.3-5.8,3.9-11.3,3.9C282,157.4,277.4,152.3,277.4,143.1z"/>
		<path class="st1" d="M353.9,155.9v-8.6c-4.7,5.3-12.6,10.1-21.8,10.1c-12.8,0-19.5-6.3-19.5-19.5V94.8h9.5v40.2
			c0,10.8,5.4,13.9,13.8,13.9c7.3,0,14.4-4.3,18-9.2V94.8h9.5v61.1H353.9z"/>
		<path class="st1" d="M382.4,155.9V94.8h9.5v9.7c4.9-6.3,12-11.1,20.4-11.1v9.7c-1.1-0.1-2.3-0.3-3.7-0.3c-5.9,0-13.9,4.8-16.7,9.7
			v43.3H382.4z"/>
		<path class="st1" d="M420.6,125.3c0-17.7,12.6-32,30.1-32c18.5,0,29.3,14.4,29.3,32.8v2.4h-49.3c0.8,11.5,8.7,21.1,21.9,21.1
			c7.1,0,14-2.8,19-7.8l4.6,6.2c-6.2,6.1-14.4,9.5-24.3,9.5C433.6,157.4,420.6,144.4,420.6,125.3z M450.6,101.2
			c-13,0-19.5,11-20,20.2h40.1C470.6,112.4,464.5,101.2,450.6,101.2z"/>
	</g>
	<g>
		<path class="st2" d="M521.1,143.5l13.6-7c1.9,4.1,5.3,7.5,11.4,7.5c6.3,0,10.1-3.3,10.1-8.7c0-5.6-3.8-8.7-10.9-8.7
			c-3.9,0-6.9,0.6-9.1,1.5c-0.8,0.3-1.6-0.1-1-0.9l13-18.2h-21.4V95h45.8c0.5,0,0.6,0.3,0.3,0.7l-15.5,20.8
			c8.1,1.6,15.7,7.5,15.7,19.5c0,13.1-10.1,22-25.9,22C534.3,158,525.1,151.5,521.1,143.5z"/>
		<path class="st2" d="M629.2,135c0,13.1-11,23-25.9,23c-14.6,0-25.5-10-25.5-22.7c0-6.6,2.1-12,5.8-17.2L599.9,95h17.2l-13.3,18.8
			C619.6,112.4,629.2,123.5,629.2,135z M612.7,135c0-5-3.4-9.6-9.4-9.6c-5.8,0-9.4,4.4-9.4,9.6c0,4.9,3.6,9.5,9.4,9.5
			C609.2,144.5,612.7,139.9,612.7,135z"/>
		<path class="st2" d="M633.8,126c0-18.7,15.4-31.8,33.4-31.8s33.4,13.1,33.4,31.8c0,18.7-15.4,31.9-33.4,31.9
			S633.8,144.8,633.8,126z M683.5,126c0-9.8-5.9-17.4-16.4-17.4s-16.4,7.6-16.4,17.4c0,9.8,5.9,17.5,16.4,17.5
			S683.5,135.8,683.5,126z"/>
	</g>
	<rect x="496.5" y="87.8" class="st3" width="10" height="74.2"/>
</g>
</svg>
